<?xml version="1.0" encoding="UTF-8" standalone="no"?>
<!-- Created with Inkscape (http://www.inkscape.org/) -->

<svg
   width="256"
   height="256"
   viewBox="0 0 67.733332 67.733333"
   version="1.1"
   id="svg1"
   xml:space="preserve"
   sodipodi:docname="neko_dunked.svg"
   inkscape:version="1.3.2 (1:1.3.2+202311252150+091e20ef0f)"
   xmlns:inkscape="http://www.inkscape.org/namespaces/inkscape"
   xmlns:sodipodi="http://sodipodi.sourceforge.net/DTD/sodipodi-0.dtd"
   xmlns="http://www.w3.org/2000/svg"
   xmlns:svg="http://www.w3.org/2000/svg"><sodipodi:namedview
     id="namedview1"
     pagecolor="#ffffff"
     bordercolor="#666666"
     borderopacity="1.0"
     inkscape:showpageshadow="2"
     inkscape:pageopacity="0.0"
     inkscape:pagecheckerboard="0"
     inkscape:deskcolor="#d1d1d1"
     inkscape:document-units="mm"
     inkscape:zoom="1.6341381"
     inkscape:cx="42.836038"
     inkscape:cy="177.76956"
     inkscape:window-width="1920"
     inkscape:window-height="1009"
     inkscape:window-x="0"
     inkscape:window-y="840"
     inkscape:window-maximized="1"
     inkscape:current-layer="layer1" /><defs
     id="defs1" /><g
     inkscape:label="Layer 1"
     inkscape:groupmode="layer"
     id="layer1"><path
       style="opacity:1;fill:#ffffff;fill-opacity:0.99998599;fill-rule:evenodd;stroke:none;stroke-width:3.175;stroke-linecap:round;stroke-miterlimit:10"
       d="M 20.598087,16.293682 7.3865098,11.451254 c 0,0 -2.3219295,-1.8385543 -2.9292166,-1.080438 -0.9708184,1.211935 0.7346973,3.042731 0.7346973,3.042731 3.0230435,13.081327 10.1166735,17.063034 10.1166735,17.063034 0,0 -1.789564,13.750273 0.911526,19.248071 2.853563,5.808137 14.57368,11.272579 14.57368,11.272579 0,0 3.867975,4.900154 7.071812,5.630589 5.555644,1.266618 12.379167,-0.01046 16.436901,-4.010995 2.288959,-2.256693 3.016533,-9.159068 3.016533,-9.159068 0,0 7.388811,-8.168314 6.311495,-15.33526 C 62.888186,33.183443 58.853628,23.920755 58.853628,23.920755 58.853628,23.920755 61.602937,0 59.809011,0 58.647706,0 58.772515,0.83560743 58.104,1.5041223 54.715665,4.8924577 47.218621,11.573406 47.218621,11.573406 Z m 14.914157,32.174495 c 0,0 -3.751876,-5.62436 -10.730042,-4.421119 0,0 -0.541419,5.117299 3.831775,6.480013 3.25327,1.013737 6.898267,-2.058894 6.898267,-2.058894 z m 12.707702,-2.095573 c 0,0 1.340259,-6.581929 8.455029,-6.950839 0,0 0.849889,5.280974 -1.935502,6.725948 -2.041501,1.059066 -6.519527,0.224891 -6.519527,0.224891 z"
       id="path1"
       sodipodi:nodetypes="ccsccscsscscssccccscccsc" /><ellipse
       style="opacity:1;fill:#ffffff;fill-opacity:0.99998599;fill-rule:evenodd;stroke:none;stroke-width:3.175;stroke-linecap:round;stroke-miterlimit:10"
       id="path2"
       cx="29.736446"
       cy="46.727539"
       rx="2.2489283"
       ry="3.1388249" /><ellipse
       style="opacity:1;fill:#ffffff;fill-opacity:0.99998599;fill-rule:evenodd;stroke:none;stroke-width:3.175;stroke-linecap:round;stroke-miterlimit:10"
       id="ellipse2"
       cx="52.787144"
       cy="42.508938"
       rx="2.2489283"
       ry="3.1388249" /></g></svg>
